<svg data-v-eebd61a9="" xmlns="http://www.w3.org/2000/svg" width="24" height="24" viewBox="0 0 24 24" data-animation-icon="true" data-animation-icon-enter-duration="1" data-animation-icon-playback="trigger"><style>[data-animation-icon-wrapper][data-animation-phase="idle"] .LightTimeline1Icon-svg *{animation:none!important}[data-animation-icon-wrapper][data-animation-phase="enter"] .LightTimeline1Icon-svg *{animation-direction:normal!important;animation-duration:1000ms!important;animation-iteration-count:1!important;animation-fill-mode:forwards!important}[data-animation-icon-layer][hidden]{display:none!important}</style><g data-animation-icon-layer="idle"><path id="LightTimeline1Icon-idle-rs-14fxeom-mh0" d="M 0 -12 C 6.627 -12 12 -6.627 12 0 C 12 6.627 6.627 12 0 12 C -6.627 12 -12 6.627 -12 0 C -12 -6.627 -6.627 -12 0 -12 Z" fill="rgba(0, 0, 0, 0.051)" transform="matrix(1 0 0 1 12 12)"></path><path id="LightTimeline1Icon-idle-rs-14fxeom-mh1" d="M 0 -5.5 C 3.038 -5.5 5.5 -3.038 5.5 0 C 5.5 3.038 3.038 5.5 0 5.5 C -3.038 5.5 -5.5 3.038 -5.5 0 C -5.5 -3.038 -3.038 -5.5 0 -5.5 Z" fill="rgba(0, 0, 0, 0.149)" transform="matrix(1 0 0 1 11.887 9.5)"></path><path id="LightTimeline1Icon-idle-rs-14fxeom-mh2" d="M 0.001 -4 C 3.87 -4 7.225 -2.35 8.887 0.063 C 6.692 2.481 3.524 4 0.001 4 C -3.523 4 -6.692 2.481 -8.887 0.063 C -7.225 -2.35 -3.87 -4 0.001 -4 Z" fill="rgba(0, 0, 0, 0.149)" transform="matrix(1 0 0 1 11.887 20)"></path><path id="LightTimeline1Icon-idle-rs-14fxeom-mh3" d="M -0.069 -0.495 L 0.069 0.495" fill="none" stroke="rgba(238, 237, 235, 0.902)" stroke-width="1.5" stroke-linecap="round" stroke-linejoin="round" transform="matrix(1 0 0 1 11.901 8.706)" opacity="1"></path><path id="LightTimeline1Icon-idle-rs-14fxeom-mh4" d="M -0.068 -0.495 L 0.068 0.495" fill="none" stroke="rgba(238, 237, 235, 0.902)" stroke-width="1.5" stroke-linecap="round" stroke-linejoin="round" transform="matrix(1 0 0 1 14.873 8.294)" opacity="1"></path></g><g data-animation-icon-layer="enter" hidden="true"><path id="LightTimeline1Icon-enter-rs-14fxeom-mh0" d="M 0 -12 C 6.627 -12 12 -6.627 12 0 C 12 6.627 6.627 12 0 12 C -6.627 12 -12 6.627 -12 0 C -12 -6.627 -6.627 -12 0 -12 Z" fill="rgba(0, 0, 0, 0.051)" transform="matrix(1 0 0 1 12 12)"></path><path id="LightTimeline1Icon-enter-rs-14fxeom-mh1" d="M 0 -5.5 C 3.038 -5.5 5.5 -3.038 5.5 0 C 5.5 3.038 3.038 5.5 0 5.5 C -3.038 5.5 -5.5 3.038 -5.5 0 C -5.5 -3.038 -3.038 -5.5 0 -5.5 Z" fill="rgba(0, 0, 0, 0.149)" transform="matrix(1 0 0 1 11.887 9.5)"></path><path id="LightTimeline1Icon-enter-rs-14fxeom-mh2" d="M 0.001 -4 C 3.87 -4 7.225 -2.35 8.887 0.063 C 6.692 2.481 3.524 4 0.001 4 C -3.523 4 -6.692 2.481 -8.887 0.063 C -7.225 -2.35 -3.87 -4 0.001 -4 Z" fill="rgba(0, 0, 0, 0.149)" transform="matrix(1 0 0 1 11.887 20)"></path><path id="LightTimeline1Icon-enter-rs-14fxeom-mh3" d="M -0.069 -0.495 L 0.069 0.495" fill="none" stroke="rgba(238, 237, 235, 0.902)" stroke-width="1.5" stroke-linecap="round" stroke-linejoin="round" transform="matrix(1 0 0 1 11.901 8.706)"><animate attributeName="d" values="M -0.069 -0.495 L 0.069 0.495;M -0.069 -0.495 L 0.041 0.297;M -0.069 -0.495 L 0.014 0.099;M -0.069 -0.495 L -0.014 -0.099;M -0.069 -0.495 L -0.041 -0.297;M -0.069 -0.495 L -0.041 -0.297;M -0.069 -0.495 L -0.049 -0.354;M -0.069 -0.495 L -0.049 -0.354;M -0.069 -0.495 L -0.029 -0.212;M -0.069 -0.495 L -0.01 -0.071;M -0.069 -0.495 L 0.01 0.071;M -0.069 -0.495 L 0.029 0.212;M -0.069 -0.495 L 0.049 0.354;M -0.069 -0.495 L 0.069 0.495;M -0.069 -0.495 L 0.069 0.495" keyTimes="0;0.01667;0.03333;0.05;0.06667;0.16667;0.18333;0.26667;0.28333;0.3;0.31667;0.33333;0.35;0.36667;1" dur="1s" repeatCount="1" fill="freeze"></animate><animate attributeName="opacity" values="1;1;0;0;1;1" keyTimes="0;0.06667;0.08333;0.25;0.26667;1" dur="1s" repeatCount="1" fill="freeze"></animate></path><path id="LightTimeline1Icon-enter-rs-14fxeom-mh4" d="M -0.068 -0.495 L 0.068 0.495" fill="none" stroke="rgba(238, 237, 235, 0.902)" stroke-width="1.5" stroke-linecap="round" stroke-linejoin="round" transform="matrix(1 0 0 1 14.873 8.294)"><animate attributeName="d" values="M -0.068 -0.495 L 0.068 0.495;M -0.068 -0.495 L 0.041 0.297;M -0.068 -0.495 L 0.014 0.099;M -0.068 -0.495 L -0.014 -0.099;M -0.068 -0.495 L -0.041 -0.297;M -0.068 -0.495 L -0.041 -0.297;M -0.068 -0.495 L -0.049 -0.354;M -0.068 -0.495 L -0.049 -0.354;M -0.068 -0.495 L -0.029 -0.212;M -0.068 -0.495 L -0.01 -0.071;M -0.068 -0.495 L 0.01 0.071;M -0.068 -0.495 L 0.029 0.212;M -0.068 -0.495 L 0.049 0.354;M -0.068 -0.495 L 0.068 0.495;M -0.068 -0.495 L 0.068 0.495" keyTimes="0;0.01667;0.03333;0.05;0.06667;0.16667;0.18333;0.26667;0.28333;0.3;0.31667;0.33333;0.35;0.36667;1" dur="1s" repeatCount="1" fill="freeze"></animate><animate attributeName="opacity" values="1;1;0;0;1;1" keyTimes="0;0.06667;0.08333;0.25;0.26667;1" dur="1s" repeatCount="1" fill="freeze"></animate></path></g></svg>